<svg xmlns="http://www.w3.org/2000/svg" width="820" height="345" viewBox="0 0 820 345" role="img" aria-label="Sidnei Almeida, AI Engineer">
<style>
.tag{font:500 13px ui-monospace,SFMono-Regular,Menlo,Consolas,'Liberation Mono',monospace;fill:#8a8a8a;letter-spacing:3px}
.dim{font:400 11px ui-monospace,SFMono-Regular,Menlo,Consolas,'Liberation Mono',monospace;fill:#4a4a4a;letter-spacing:1px}
.cur{animation:blink 1.1s steps(1,end) infinite}
@keyframes blink{50%{opacity:0}}
</style>
<rect x="0.5" y="0.5" width="819" height="344" rx="6" fill="#050505" stroke="#1c1c1c"/>
<text x="24" y="28" class="dim">~/sidnei-almeida</text>
<text x="796" y="28" class="dim" text-anchor="end">● ● ●</text>
<rect x="167.0" y="54.0" width="9.3" height="15.3" fill="#e4e4e4"/>
<rect x="176.0" y="54.0" width="9.3" height="15.3" fill="#e4e4e4"/>
<rect x="185.0" y="54.0" width="9.3" height="15.3" fill="#e4e4e4"/>
<rect x="194.0" y="54.0" width="9.3" height="15.3" fill="#e4e4e4"/>
<rect x="203.0" y="54.0" width="9.3" height="15.3" fill="#e4e4e4"/>
<rect x="212.0" y="54.0" width="9.3" height="15.3" fill="#e4e4e4"/>
<rect x="221.0" y="54.0" width="9.3" height="15.3" fill="#e4e4e4"/>
<rect x="230.0" y="60.0" width="6.0" height="3.0" fill="#3a3a3a"/>
<rect x="233.0" y="60.0" width="3.0" height="9.3" fill="#3a3a3a"/>
<rect x="239.0" y="54.0" width="9.3" height="15.3" fill="#e4e4e4"/>
<rect x="248.0" y="54.0" width="9.3" height="15.3" fill="#e4e4e4"/>
<rect x="257.0" y="60.0" width="6.0" height="3.0" fill="#3a3a3a"/>
<rect x="260.0" y="60.0" width="3.0" height="9.3" fill="#3a3a3a"/>
<rect x="266.0" y="54.0" width="9.3" height="15.3" fill="#e4e4e4"/>
<rect x="275.0" y="54.0" width="9.3" height="15.3" fill="#e4e4e4"/>
<rect x="284.0" y="54.0" width="9.3" height="15.3" fill="#e4e4e4"/>
<rect x="293.0" y="54.0" width="9.3" height="15.3" fill="#e4e4e4"/>
<rect x="302.0" y="54.0" width="9.3" height="15.3" fill="#e4e4e4"/>
<rect x="311.0" y="54.0" width="9.3" height="15.3" fill="#e4e4e4"/>
<rect x="320.0" y="60.0" width="6.0" height="3.0" fill="#3a3a3a"/>
<rect x="323.0" y="60.0" width="3.0" height="9.3" fill="#3a3a3a"/>
<rect x="338.0" y="54.0" width="9.3" height="15.3" fill="#e4e4e4"/>
<rect x="347.0" y="54.0" width="9.3" height="15.3" fill="#e4e4e4"/>
<rect x="356.0" y="54.0" width="9.3" height="15.3" fill="#e4e4e4"/>
<rect x="365.0" y="60.0" width="6.0" height="3.0" fill="#3a3a3a"/>
<rect x="368.0" y="60.0" width="3.0" height="9.3" fill="#3a3a3a"/>
<rect x="401.0" y="54.0" width="9.3" height="15.3" fill="#e4e4e4"/>
<rect x="410.0" y="54.0" width="9.3" height="15.3" fill="#e4e4e4"/>
<rect x="419.0" y="60.0" width="6.0" height="3.0" fill="#3a3a3a"/>
<rect x="422.0" y="60.0" width="3.0" height="9.3" fill="#3a3a3a"/>
<rect x="428.0" y="54.0" width="9.3" height="15.3" fill="#e4e4e4"/>
<rect x="437.0" y="54.0" width="9.3" height="15.3" fill="#e4e4e4"/>
<rect x="446.0" y="54.0" width="9.3" height="15.3" fill="#e4e4e4"/>
<rect x="455.0" y="54.0" width="9.3" height="15.3" fill="#e4e4e4"/>
<rect x="464.0" y="54.0" width="9.3" height="15.3" fill="#e4e4e4"/>
<rect x="473.0" y="54.0" width="9.3" height="15.3" fill="#e4e4e4"/>
<rect x="482.0" y="54.0" width="9.3" height="15.3" fill="#e4e4e4"/>
<rect x="491.0" y="60.0" width="6.0" height="3.0" fill="#3a3a3a"/>
<rect x="494.0" y="60.0" width="3.0" height="9.3" fill="#3a3a3a"/>
<rect x="500.0" y="54.0" width="9.3" height="15.3" fill="#e4e4e4"/>
<rect x="509.0" y="54.0" width="9.3" height="15.3" fill="#e4e4e4"/>
<rect x="518.0" y="60.0" width="6.0" height="3.0" fill="#3a3a3a"/>
<rect x="521.0" y="60.0" width="3.0" height="9.3" fill="#3a3a3a"/>
<rect x="167.0" y="69.0" width="9.3" height="15.3" fill="#e4e4e4"/>
<rect x="176.0" y="69.0" width="9.3" height="15.3" fill="#e4e4e4"/>
<rect x="188.0" y="75.0" width="6.3" height="3.0" fill="#3a3a3a"/>
<rect x="188.0" y="75.0" width="3.0" height="9.3" fill="#3a3a3a"/>
<rect x="194.0" y="75.0" width="9.3" height="3.0" fill="#3a3a3a"/>
<rect x="203.0" y="75.0" width="9.3" height="3.0" fill="#3a3a3a"/>
<rect x="212.0" y="75.0" width="9.3" height="3.0" fill="#3a3a3a"/>
<rect x="221.0" y="75.0" width="9.3" height="3.0" fill="#3a3a3a"/>
<rect x="230.0" y="75.0" width="6.0" height="3.0" fill="#3a3a3a"/>
<rect x="233.0" y="69.0" width="3.0" height="9.0" fill="#3a3a3a"/>
<rect x="239.0" y="69.0" width="9.3" height="15.3" fill="#e4e4e4"/>
<rect x="248.0" y="69.0" width="9.3" height="15.3" fill="#e4e4e4"/>
<rect x="260.0" y="69.0" width="3.0" height="15.3" fill="#3a3a3a"/>
<rect x="266.0" y="69.0" width="9.3" height="15.3" fill="#e4e4e4"/>
<rect x="275.0" y="69.0" width="9.3" height="15.3" fill="#e4e4e4"/>
<rect x="287.0" y="75.0" width="6.3" height="3.0" fill="#3a3a3a"/>
<rect x="287.0" y="75.0" width="3.0" height="9.3" fill="#3a3a3a"/>
<rect x="293.0" y="75.0" width="9.3" height="3.0" fill="#3a3a3a"/>
<rect x="302.0" y="75.0" width="9.3" height="3.0" fill="#3a3a3a"/>
<rect x="311.0" y="69.0" width="9.3" height="15.3" fill="#e4e4e4"/>
<rect x="320.0" y="69.0" width="9.3" height="15.3" fill="#e4e4e4"/>
<rect x="329.0" y="75.0" width="6.0" height="3.0" fill="#3a3a3a"/>
<rect x="332.0" y="75.0" width="3.0" height="9.3" fill="#3a3a3a"/>
<rect x="338.0" y="69.0" width="9.3" height="15.3" fill="#e4e4e4"/>
<rect x="347.0" y="69.0" width="9.3" height="15.3" fill="#e4e4e4"/>
<rect x="356.0" y="69.0" width="9.3" height="15.3" fill="#e4e4e4"/>
<rect x="365.0" y="69.0" width="9.3" height="15.3" fill="#e4e4e4"/>
<rect x="374.0" y="75.0" width="6.0" height="3.0" fill="#3a3a3a"/>
<rect x="377.0" y="75.0" width="3.0" height="9.3" fill="#3a3a3a"/>
<rect x="401.0" y="69.0" width="9.3" height="15.3" fill="#e4e4e4"/>
<rect x="410.0" y="69.0" width="9.3" height="15.3" fill="#e4e4e4"/>
<rect x="422.0" y="69.0" width="3.0" height="15.3" fill="#3a3a3a"/>
<rect x="428.0" y="69.0" width="9.3" height="15.3" fill="#e4e4e4"/>
<rect x="437.0" y="69.0" width="9.3" height="15.3" fill="#e4e4e4"/>
<rect x="449.0" y="75.0" width="6.3" height="3.0" fill="#3a3a3a"/>
<rect x="449.0" y="75.0" width="3.0" height="9.3" fill="#3a3a3a"/>
<rect x="455.0" y="75.0" width="9.3" height="3.0" fill="#3a3a3a"/>
<rect x="464.0" y="75.0" width="9.3" height="3.0" fill="#3a3a3a"/>
<rect x="473.0" y="75.0" width="9.3" height="3.0" fill="#3a3a3a"/>
<rect x="482.0" y="75.0" width="9.3" height="3.0" fill="#3a3a3a"/>
<rect x="491.0" y="75.0" width="6.0" height="3.0" fill="#3a3a3a"/>
<rect x="494.0" y="69.0" width="3.0" height="9.0" fill="#3a3a3a"/>
<rect x="500.0" y="69.0" width="9.3" height="15.3" fill="#e4e4e4"/>
<rect x="509.0" y="69.0" width="9.3" height="15.3" fill="#e4e4e4"/>
<rect x="521.0" y="69.0" width="3.0" height="15.3" fill="#3a3a3a"/>
<rect x="167.0" y="84.0" width="9.3" height="15.3" fill="#e4e4e4"/>
<rect x="176.0" y="84.0" width="9.3" height="15.3" fill="#e4e4e4"/>
<rect x="185.0" y="84.0" width="9.3" height="15.3" fill="#e4e4e4"/>
<rect x="194.0" y="84.0" width="9.3" height="15.3" fill="#e4e4e4"/>
<rect x="203.0" y="84.0" width="9.3" height="15.3" fill="#e4e4e4"/>
<rect x="212.0" y="84.0" width="9.3" height="15.3" fill="#e4e4e4"/>
<rect x="221.0" y="84.0" width="9.3" height="15.3" fill="#e4e4e4"/>
<rect x="230.0" y="90.0" width="6.0" height="3.0" fill="#3a3a3a"/>
<rect x="233.0" y="90.0" width="3.0" height="9.3" fill="#3a3a3a"/>
<rect x="239.0" y="84.0" width="9.3" height="15.3" fill="#e4e4e4"/>
<rect x="248.0" y="84.0" width="9.3" height="15.3" fill="#e4e4e4"/>
<rect x="260.0" y="84.0" width="3.0" height="15.3" fill="#3a3a3a"/>
<rect x="266.0" y="84.0" width="9.3" height="15.3" fill="#e4e4e4"/>
<rect x="275.0" y="84.0" width="9.3" height="15.3" fill="#e4e4e4"/>
<rect x="287.0" y="84.0" width="3.0" height="15.3" fill="#3a3a3a"/>
<rect x="311.0" y="84.0" width="9.3" height="15.3" fill="#e4e4e4"/>
<rect x="320.0" y="84.0" width="9.3" height="15.3" fill="#e4e4e4"/>
<rect x="332.0" y="84.0" width="3.0" height="15.3" fill="#3a3a3a"/>
<rect x="338.0" y="84.0" width="9.3" height="15.3" fill="#e4e4e4"/>
<rect x="347.0" y="84.0" width="9.3" height="15.3" fill="#e4e4e4"/>
<rect x="359.0" y="90.0" width="6.3" height="3.0" fill="#3a3a3a"/>
<rect x="359.0" y="90.0" width="3.0" height="9.3" fill="#3a3a3a"/>
<rect x="365.0" y="84.0" width="9.3" height="15.3" fill="#e4e4e4"/>
<rect x="374.0" y="84.0" width="9.3" height="15.3" fill="#e4e4e4"/>
<rect x="383.0" y="90.0" width="6.0" height="3.0" fill="#3a3a3a"/>
<rect x="386.0" y="90.0" width="3.0" height="9.3" fill="#3a3a3a"/>
<rect x="401.0" y="84.0" width="9.3" height="15.3" fill="#e4e4e4"/>
<rect x="410.0" y="84.0" width="9.3" height="15.3" fill="#e4e4e4"/>
<rect x="422.0" y="84.0" width="3.0" height="15.3" fill="#3a3a3a"/>
<rect x="428.0" y="84.0" width="9.3" height="15.3" fill="#e4e4e4"/>
<rect x="437.0" y="84.0" width="9.3" height="15.3" fill="#e4e4e4"/>
<rect x="446.0" y="84.0" width="9.3" height="15.3" fill="#e4e4e4"/>
<rect x="455.0" y="84.0" width="9.3" height="15.3" fill="#e4e4e4"/>
<rect x="464.0" y="84.0" width="9.3" height="15.3" fill="#e4e4e4"/>
<rect x="473.0" y="90.0" width="6.0" height="3.0" fill="#3a3a3a"/>
<rect x="476.0" y="90.0" width="3.0" height="9.3" fill="#3a3a3a"/>
<rect x="500.0" y="84.0" width="9.3" height="15.3" fill="#e4e4e4"/>
<rect x="509.0" y="84.0" width="9.3" height="15.3" fill="#e4e4e4"/>
<rect x="521.0" y="84.0" width="3.0" height="15.3" fill="#3a3a3a"/>
<rect x="170.0" y="105.0" width="6.3" height="3.0" fill="#3a3a3a"/>
<rect x="170.0" y="99.0" width="3.0" height="9.0" fill="#3a3a3a"/>
<rect x="176.0" y="105.0" width="9.3" height="3.0" fill="#3a3a3a"/>
<rect x="185.0" y="105.0" width="9.3" height="3.0" fill="#3a3a3a"/>
<rect x="194.0" y="105.0" width="9.3" height="3.0" fill="#3a3a3a"/>
<rect x="203.0" y="105.0" width="9.3" height="3.0" fill="#3a3a3a"/>
<rect x="212.0" y="99.0" width="9.3" height="15.3" fill="#e4e4e4"/>
<rect x="221.0" y="99.0" width="9.3" height="15.3" fill="#e4e4e4"/>
<rect x="233.0" y="99.0" width="3.0" height="15.3" fill="#3a3a3a"/>
<rect x="239.0" y="99.0" width="9.3" height="15.3" fill="#e4e4e4"/>
<rect x="248.0" y="99.0" width="9.3" height="15.3" fill="#e4e4e4"/>
<rect x="260.0" y="99.0" width="3.0" height="15.3" fill="#3a3a3a"/>
<rect x="266.0" y="99.0" width="9.3" height="15.3" fill="#e4e4e4"/>
<rect x="275.0" y="99.0" width="9.3" height="15.3" fill="#e4e4e4"/>
<rect x="287.0" y="99.0" width="3.0" height="15.3" fill="#3a3a3a"/>
<rect x="311.0" y="99.0" width="9.3" height="15.3" fill="#e4e4e4"/>
<rect x="320.0" y="99.0" width="9.3" height="15.3" fill="#e4e4e4"/>
<rect x="332.0" y="99.0" width="3.0" height="15.3" fill="#3a3a3a"/>
<rect x="338.0" y="99.0" width="9.3" height="15.3" fill="#e4e4e4"/>
<rect x="347.0" y="99.0" width="9.3" height="15.3" fill="#e4e4e4"/>
<rect x="359.0" y="99.0" width="3.0" height="15.3" fill="#3a3a3a"/>
<rect x="368.0" y="105.0" width="6.3" height="3.0" fill="#3a3a3a"/>
<rect x="368.0" y="99.0" width="3.0" height="9.0" fill="#3a3a3a"/>
<rect x="374.0" y="99.0" width="9.3" height="15.3" fill="#e4e4e4"/>
<rect x="383.0" y="99.0" width="9.3" height="15.3" fill="#e4e4e4"/>
<rect x="392.0" y="105.0" width="6.0" height="3.0" fill="#3a3a3a"/>
<rect x="395.0" y="105.0" width="3.0" height="9.3" fill="#3a3a3a"/>
<rect x="401.0" y="99.0" width="9.3" height="15.3" fill="#e4e4e4"/>
<rect x="410.0" y="99.0" width="9.3" height="15.3" fill="#e4e4e4"/>
<rect x="422.0" y="99.0" width="3.0" height="15.3" fill="#3a3a3a"/>
<rect x="428.0" y="99.0" width="9.3" height="15.3" fill="#e4e4e4"/>
<rect x="437.0" y="99.0" width="9.3" height="15.3" fill="#e4e4e4"/>
<rect x="449.0" y="105.0" width="6.3" height="3.0" fill="#3a3a3a"/>
<rect x="449.0" y="105.0" width="3.0" height="9.3" fill="#3a3a3a"/>
<rect x="455.0" y="105.0" width="9.3" height="3.0" fill="#3a3a3a"/>
<rect x="464.0" y="105.0" width="9.3" height="3.0" fill="#3a3a3a"/>
<rect x="473.0" y="105.0" width="6.0" height="3.0" fill="#3a3a3a"/>
<rect x="476.0" y="99.0" width="3.0" height="9.0" fill="#3a3a3a"/>
<rect x="500.0" y="99.0" width="9.3" height="15.3" fill="#e4e4e4"/>
<rect x="509.0" y="99.0" width="9.3" height="15.3" fill="#e4e4e4"/>
<rect x="521.0" y="99.0" width="3.0" height="15.3" fill="#3a3a3a"/>
<rect x="167.0" y="114.0" width="9.3" height="15.3" fill="#e4e4e4"/>
<rect x="176.0" y="114.0" width="9.3" height="15.3" fill="#e4e4e4"/>
<rect x="185.0" y="114.0" width="9.3" height="15.3" fill="#e4e4e4"/>
<rect x="194.0" y="114.0" width="9.3" height="15.3" fill="#e4e4e4"/>
<rect x="203.0" y="114.0" width="9.3" height="15.3" fill="#e4e4e4"/>
<rect x="212.0" y="114.0" width="9.3" height="15.3" fill="#e4e4e4"/>
<rect x="221.0" y="114.0" width="9.3" height="15.3" fill="#e4e4e4"/>
<rect x="233.0" y="114.0" width="3.0" height="15.3" fill="#3a3a3a"/>
<rect x="239.0" y="114.0" width="9.3" height="15.3" fill="#e4e4e4"/>
<rect x="248.0" y="114.0" width="9.3" height="15.3" fill="#e4e4e4"/>
<rect x="260.0" y="114.0" width="3.0" height="15.3" fill="#3a3a3a"/>
<rect x="266.0" y="114.0" width="9.3" height="15.3" fill="#e4e4e4"/>
<rect x="275.0" y="114.0" width="9.3" height="15.3" fill="#e4e4e4"/>
<rect x="284.0" y="114.0" width="9.3" height="15.3" fill="#e4e4e4"/>
<rect x="293.0" y="114.0" width="9.3" height="15.3" fill="#e4e4e4"/>
<rect x="302.0" y="114.0" width="9.3" height="15.3" fill="#e4e4e4"/>
<rect x="311.0" y="114.0" width="9.3" height="15.3" fill="#e4e4e4"/>
<rect x="323.0" y="120.0" width="6.3" height="3.0" fill="#3a3a3a"/>
<rect x="323.0" y="120.0" width="3.0" height="9.3" fill="#3a3a3a"/>
<rect x="329.0" y="120.0" width="6.0" height="3.0" fill="#3a3a3a"/>
<rect x="332.0" y="114.0" width="3.0" height="9.0" fill="#3a3a3a"/>
<rect x="338.0" y="114.0" width="9.3" height="15.3" fill="#e4e4e4"/>
<rect x="347.0" y="114.0" width="9.3" height="15.3" fill="#e4e4e4"/>
<rect x="359.0" y="114.0" width="3.0" height="15.3" fill="#3a3a3a"/>
<rect x="377.0" y="120.0" width="6.3" height="3.0" fill="#3a3a3a"/>
<rect x="377.0" y="114.0" width="3.0" height="9.0" fill="#3a3a3a"/>
<rect x="383.0" y="114.0" width="9.3" height="15.3" fill="#e4e4e4"/>
<rect x="392.0" y="114.0" width="9.3" height="15.3" fill="#e4e4e4"/>
<rect x="401.0" y="114.0" width="9.3" height="15.3" fill="#e4e4e4"/>
<rect x="410.0" y="114.0" width="9.3" height="15.3" fill="#e4e4e4"/>
<rect x="422.0" y="114.0" width="3.0" height="15.3" fill="#3a3a3a"/>
<rect x="428.0" y="114.0" width="9.3" height="15.3" fill="#e4e4e4"/>
<rect x="437.0" y="114.0" width="9.3" height="15.3" fill="#e4e4e4"/>
<rect x="446.0" y="114.0" width="9.3" height="15.3" fill="#e4e4e4"/>
<rect x="455.0" y="114.0" width="9.3" height="15.3" fill="#e4e4e4"/>
<rect x="464.0" y="114.0" width="9.3" height="15.3" fill="#e4e4e4"/>
<rect x="473.0" y="114.0" width="9.3" height="15.3" fill="#e4e4e4"/>
<rect x="482.0" y="114.0" width="9.3" height="15.3" fill="#e4e4e4"/>
<rect x="491.0" y="120.0" width="6.0" height="3.0" fill="#3a3a3a"/>
<rect x="494.0" y="120.0" width="3.0" height="9.3" fill="#3a3a3a"/>
<rect x="500.0" y="114.0" width="9.3" height="15.3" fill="#e4e4e4"/>
<rect x="509.0" y="114.0" width="9.3" height="15.3" fill="#e4e4e4"/>
<rect x="521.0" y="114.0" width="3.0" height="15.3" fill="#3a3a3a"/>
<rect x="170.0" y="135.0" width="6.3" height="3.0" fill="#3a3a3a"/>
<rect x="170.0" y="129.0" width="3.0" height="9.0" fill="#3a3a3a"/>
<rect x="176.0" y="135.0" width="9.3" height="3.0" fill="#3a3a3a"/>
<rect x="185.0" y="135.0" width="9.3" height="3.0" fill="#3a3a3a"/>
<rect x="194.0" y="135.0" width="9.3" height="3.0" fill="#3a3a3a"/>
<rect x="203.0" y="135.0" width="9.3" height="3.0" fill="#3a3a3a"/>
<rect x="212.0" y="135.0" width="9.3" height="3.0" fill="#3a3a3a"/>
<rect x="221.0" y="135.0" width="9.3" height="3.0" fill="#3a3a3a"/>
<rect x="230.0" y="135.0" width="6.0" height="3.0" fill="#3a3a3a"/>
<rect x="233.0" y="129.0" width="3.0" height="9.0" fill="#3a3a3a"/>
<rect x="242.0" y="135.0" width="6.3" height="3.0" fill="#3a3a3a"/>
<rect x="242.0" y="129.0" width="3.0" height="9.0" fill="#3a3a3a"/>
<rect x="248.0" y="135.0" width="9.3" height="3.0" fill="#3a3a3a"/>
<rect x="257.0" y="135.0" width="6.0" height="3.0" fill="#3a3a3a"/>
<rect x="260.0" y="129.0" width="3.0" height="9.0" fill="#3a3a3a"/>
<rect x="269.0" y="135.0" width="6.3" height="3.0" fill="#3a3a3a"/>
<rect x="269.0" y="129.0" width="3.0" height="9.0" fill="#3a3a3a"/>
<rect x="275.0" y="135.0" width="9.3" height="3.0" fill="#3a3a3a"/>
<rect x="284.0" y="135.0" width="9.3" height="3.0" fill="#3a3a3a"/>
<rect x="293.0" y="135.0" width="9.3" height="3.0" fill="#3a3a3a"/>
<rect x="302.0" y="135.0" width="9.3" height="3.0" fill="#3a3a3a"/>
<rect x="311.0" y="135.0" width="9.3" height="3.0" fill="#3a3a3a"/>
<rect x="320.0" y="135.0" width="6.0" height="3.0" fill="#3a3a3a"/>
<rect x="323.0" y="129.0" width="3.0" height="9.0" fill="#3a3a3a"/>
<rect x="341.0" y="135.0" width="6.3" height="3.0" fill="#3a3a3a"/>
<rect x="341.0" y="129.0" width="3.0" height="9.0" fill="#3a3a3a"/>
<rect x="347.0" y="135.0" width="9.3" height="3.0" fill="#3a3a3a"/>
<rect x="356.0" y="135.0" width="6.0" height="3.0" fill="#3a3a3a"/>
<rect x="359.0" y="129.0" width="3.0" height="9.0" fill="#3a3a3a"/>
<rect x="386.0" y="135.0" width="6.3" height="3.0" fill="#3a3a3a"/>
<rect x="386.0" y="129.0" width="3.0" height="9.0" fill="#3a3a3a"/>
<rect x="392.0" y="135.0" width="9.3" height="3.0" fill="#3a3a3a"/>
<rect x="401.0" y="135.0" width="9.3" height="3.0" fill="#3a3a3a"/>
<rect x="410.0" y="135.0" width="9.3" height="3.0" fill="#3a3a3a"/>
<rect x="419.0" y="135.0" width="6.0" height="3.0" fill="#3a3a3a"/>
<rect x="422.0" y="129.0" width="3.0" height="9.0" fill="#3a3a3a"/>
<rect x="431.0" y="135.0" width="6.3" height="3.0" fill="#3a3a3a"/>
<rect x="431.0" y="129.0" width="3.0" height="9.0" fill="#3a3a3a"/>
<rect x="437.0" y="135.0" width="9.3" height="3.0" fill="#3a3a3a"/>
<rect x="446.0" y="135.0" width="9.3" height="3.0" fill="#3a3a3a"/>
<rect x="455.0" y="135.0" width="9.3" height="3.0" fill="#3a3a3a"/>
<rect x="464.0" y="135.0" width="9.3" height="3.0" fill="#3a3a3a"/>
<rect x="473.0" y="135.0" width="9.3" height="3.0" fill="#3a3a3a"/>
<rect x="482.0" y="135.0" width="9.3" height="3.0" fill="#3a3a3a"/>
<rect x="491.0" y="135.0" width="6.0" height="3.0" fill="#3a3a3a"/>
<rect x="494.0" y="129.0" width="3.0" height="9.0" fill="#3a3a3a"/>
<rect x="503.0" y="135.0" width="6.3" height="3.0" fill="#3a3a3a"/>
<rect x="503.0" y="129.0" width="3.0" height="9.0" fill="#3a3a3a"/>
<rect x="509.0" y="135.0" width="9.3" height="3.0" fill="#3a3a3a"/>
<rect x="518.0" y="135.0" width="6.0" height="3.0" fill="#3a3a3a"/>
<rect x="521.0" y="129.0" width="3.0" height="9.0" fill="#3a3a3a"/>
<rect x="176.0" y="159.0" width="9.3" height="15.3" fill="#e4e4e4"/>
<rect x="185.0" y="159.0" width="9.3" height="15.3" fill="#e4e4e4"/>
<rect x="194.0" y="159.0" width="9.3" height="15.3" fill="#e4e4e4"/>
<rect x="203.0" y="159.0" width="9.3" height="15.3" fill="#e4e4e4"/>
<rect x="212.0" y="159.0" width="9.3" height="15.3" fill="#e4e4e4"/>
<rect x="221.0" y="165.0" width="6.0" height="3.0" fill="#3a3a3a"/>
<rect x="224.0" y="165.0" width="3.0" height="9.3" fill="#3a3a3a"/>
<rect x="239.0" y="159.0" width="9.3" height="15.3" fill="#e4e4e4"/>
<rect x="248.0" y="159.0" width="9.3" height="15.3" fill="#e4e4e4"/>
<rect x="257.0" y="165.0" width="6.0" height="3.0" fill="#3a3a3a"/>
<rect x="260.0" y="165.0" width="3.0" height="9.3" fill="#3a3a3a"/>
<rect x="311.0" y="159.0" width="9.3" height="15.3" fill="#e4e4e4"/>
<rect x="320.0" y="159.0" width="9.3" height="15.3" fill="#e4e4e4"/>
<rect x="329.0" y="159.0" width="9.3" height="15.3" fill="#e4e4e4"/>
<rect x="338.0" y="165.0" width="6.0" height="3.0" fill="#3a3a3a"/>
<rect x="341.0" y="165.0" width="3.0" height="9.3" fill="#3a3a3a"/>
<rect x="374.0" y="159.0" width="9.3" height="15.3" fill="#e4e4e4"/>
<rect x="383.0" y="159.0" width="9.3" height="15.3" fill="#e4e4e4"/>
<rect x="392.0" y="159.0" width="9.3" height="15.3" fill="#e4e4e4"/>
<rect x="401.0" y="165.0" width="6.0" height="3.0" fill="#3a3a3a"/>
<rect x="404.0" y="165.0" width="3.0" height="9.3" fill="#3a3a3a"/>
<rect x="410.0" y="159.0" width="9.3" height="15.3" fill="#e4e4e4"/>
<rect x="419.0" y="159.0" width="9.3" height="15.3" fill="#e4e4e4"/>
<rect x="428.0" y="159.0" width="9.3" height="15.3" fill="#e4e4e4"/>
<rect x="437.0" y="159.0" width="9.3" height="15.3" fill="#e4e4e4"/>
<rect x="446.0" y="159.0" width="9.3" height="15.3" fill="#e4e4e4"/>
<rect x="455.0" y="159.0" width="9.3" height="15.3" fill="#e4e4e4"/>
<rect x="464.0" y="159.0" width="9.3" height="15.3" fill="#e4e4e4"/>
<rect x="473.0" y="165.0" width="6.0" height="3.0" fill="#3a3a3a"/>
<rect x="476.0" y="165.0" width="3.0" height="9.3" fill="#3a3a3a"/>
<rect x="482.0" y="159.0" width="9.3" height="15.3" fill="#e4e4e4"/>
<rect x="491.0" y="159.0" width="9.3" height="15.3" fill="#e4e4e4"/>
<rect x="500.0" y="165.0" width="6.0" height="3.0" fill="#3a3a3a"/>
<rect x="503.0" y="165.0" width="3.0" height="9.3" fill="#3a3a3a"/>
<rect x="509.0" y="159.0" width="9.3" height="15.3" fill="#e4e4e4"/>
<rect x="518.0" y="159.0" width="9.3" height="15.3" fill="#e4e4e4"/>
<rect x="527.0" y="159.0" width="9.3" height="15.3" fill="#e4e4e4"/>
<rect x="536.0" y="159.0" width="9.3" height="15.3" fill="#e4e4e4"/>
<rect x="545.0" y="159.0" width="9.3" height="15.3" fill="#e4e4e4"/>
<rect x="554.0" y="159.0" width="9.3" height="15.3" fill="#e4e4e4"/>
<rect x="563.0" y="165.0" width="6.0" height="3.0" fill="#3a3a3a"/>
<rect x="566.0" y="165.0" width="3.0" height="9.3" fill="#3a3a3a"/>
<rect x="590.0" y="159.0" width="9.3" height="15.3" fill="#e4e4e4"/>
<rect x="599.0" y="159.0" width="9.3" height="15.3" fill="#e4e4e4"/>
<rect x="608.0" y="159.0" width="9.3" height="15.3" fill="#e4e4e4"/>
<rect x="617.0" y="159.0" width="9.3" height="15.3" fill="#e4e4e4"/>
<rect x="626.0" y="159.0" width="9.3" height="15.3" fill="#e4e4e4"/>
<rect x="635.0" y="165.0" width="6.0" height="3.0" fill="#3a3a3a"/>
<rect x="638.0" y="165.0" width="3.0" height="9.3" fill="#3a3a3a"/>
<rect x="167.0" y="174.0" width="9.3" height="15.3" fill="#e4e4e4"/>
<rect x="176.0" y="174.0" width="9.3" height="15.3" fill="#e4e4e4"/>
<rect x="188.0" y="180.0" width="6.3" height="3.0" fill="#3a3a3a"/>
<rect x="188.0" y="180.0" width="3.0" height="9.3" fill="#3a3a3a"/>
<rect x="194.0" y="180.0" width="9.3" height="3.0" fill="#3a3a3a"/>
<rect x="203.0" y="180.0" width="9.3" height="3.0" fill="#3a3a3a"/>
<rect x="212.0" y="174.0" width="9.3" height="15.3" fill="#e4e4e4"/>
<rect x="221.0" y="174.0" width="9.3" height="15.3" fill="#e4e4e4"/>
<rect x="230.0" y="180.0" width="6.0" height="3.0" fill="#3a3a3a"/>
<rect x="233.0" y="180.0" width="3.0" height="9.3" fill="#3a3a3a"/>
<rect x="239.0" y="174.0" width="9.3" height="15.3" fill="#e4e4e4"/>
<rect x="248.0" y="174.0" width="9.3" height="15.3" fill="#e4e4e4"/>
<rect x="260.0" y="174.0" width="3.0" height="15.3" fill="#3a3a3a"/>
<rect x="311.0" y="174.0" width="9.3" height="15.3" fill="#e4e4e4"/>
<rect x="320.0" y="174.0" width="9.3" height="15.3" fill="#e4e4e4"/>
<rect x="329.0" y="174.0" width="9.3" height="15.3" fill="#e4e4e4"/>
<rect x="338.0" y="174.0" width="9.3" height="15.3" fill="#e4e4e4"/>
<rect x="347.0" y="180.0" width="6.0" height="3.0" fill="#3a3a3a"/>
<rect x="350.0" y="180.0" width="3.0" height="9.3" fill="#3a3a3a"/>
<rect x="365.0" y="174.0" width="9.3" height="15.3" fill="#e4e4e4"/>
<rect x="374.0" y="174.0" width="9.3" height="15.3" fill="#e4e4e4"/>
<rect x="383.0" y="174.0" width="9.3" height="15.3" fill="#e4e4e4"/>
<rect x="392.0" y="174.0" width="9.3" height="15.3" fill="#e4e4e4"/>
<rect x="404.0" y="174.0" width="3.0" height="15.3" fill="#3a3a3a"/>
<rect x="410.0" y="174.0" width="9.3" height="15.3" fill="#e4e4e4"/>
<rect x="419.0" y="174.0" width="9.3" height="15.3" fill="#e4e4e4"/>
<rect x="431.0" y="180.0" width="6.3" height="3.0" fill="#3a3a3a"/>
<rect x="431.0" y="180.0" width="3.0" height="9.3" fill="#3a3a3a"/>
<rect x="437.0" y="180.0" width="9.3" height="3.0" fill="#3a3a3a"/>
<rect x="446.0" y="180.0" width="9.3" height="3.0" fill="#3a3a3a"/>
<rect x="455.0" y="180.0" width="9.3" height="3.0" fill="#3a3a3a"/>
<rect x="464.0" y="180.0" width="9.3" height="3.0" fill="#3a3a3a"/>
<rect x="473.0" y="180.0" width="6.0" height="3.0" fill="#3a3a3a"/>
<rect x="476.0" y="174.0" width="3.0" height="9.0" fill="#3a3a3a"/>
<rect x="482.0" y="174.0" width="9.3" height="15.3" fill="#e4e4e4"/>
<rect x="491.0" y="174.0" width="9.3" height="15.3" fill="#e4e4e4"/>
<rect x="503.0" y="174.0" width="3.0" height="15.3" fill="#3a3a3a"/>
<rect x="509.0" y="174.0" width="9.3" height="15.3" fill="#e4e4e4"/>
<rect x="518.0" y="174.0" width="9.3" height="15.3" fill="#e4e4e4"/>
<rect x="530.0" y="180.0" width="6.3" height="3.0" fill="#3a3a3a"/>
<rect x="530.0" y="180.0" width="3.0" height="9.3" fill="#3a3a3a"/>
<rect x="536.0" y="180.0" width="9.3" height="3.0" fill="#3a3a3a"/>
<rect x="545.0" y="180.0" width="9.3" height="3.0" fill="#3a3a3a"/>
<rect x="554.0" y="174.0" width="9.3" height="15.3" fill="#e4e4e4"/>
<rect x="563.0" y="174.0" width="9.3" height="15.3" fill="#e4e4e4"/>
<rect x="572.0" y="180.0" width="6.0" height="3.0" fill="#3a3a3a"/>
<rect x="575.0" y="180.0" width="3.0" height="9.3" fill="#3a3a3a"/>
<rect x="581.0" y="174.0" width="9.3" height="15.3" fill="#e4e4e4"/>
<rect x="590.0" y="174.0" width="9.3" height="15.3" fill="#e4e4e4"/>
<rect x="602.0" y="180.0" width="6.3" height="3.0" fill="#3a3a3a"/>
<rect x="602.0" y="180.0" width="3.0" height="9.3" fill="#3a3a3a"/>
<rect x="608.0" y="180.0" width="9.3" height="3.0" fill="#3a3a3a"/>
<rect x="617.0" y="180.0" width="9.3" height="3.0" fill="#3a3a3a"/>
<rect x="626.0" y="174.0" width="9.3" height="15.3" fill="#e4e4e4"/>
<rect x="635.0" y="174.0" width="9.3" height="15.3" fill="#e4e4e4"/>
<rect x="644.0" y="180.0" width="6.0" height="3.0" fill="#3a3a3a"/>
<rect x="647.0" y="180.0" width="3.0" height="9.3" fill="#3a3a3a"/>
<rect x="167.0" y="189.0" width="9.3" height="15.3" fill="#e4e4e4"/>
<rect x="176.0" y="189.0" width="9.3" height="15.3" fill="#e4e4e4"/>
<rect x="185.0" y="189.0" width="9.3" height="15.3" fill="#e4e4e4"/>
<rect x="194.0" y="189.0" width="9.3" height="15.3" fill="#e4e4e4"/>
<rect x="203.0" y="189.0" width="9.3" height="15.3" fill="#e4e4e4"/>
<rect x="212.0" y="189.0" width="9.3" height="15.3" fill="#e4e4e4"/>
<rect x="221.0" y="189.0" width="9.3" height="15.3" fill="#e4e4e4"/>
<rect x="233.0" y="189.0" width="3.0" height="15.3" fill="#3a3a3a"/>
<rect x="239.0" y="189.0" width="9.3" height="15.3" fill="#e4e4e4"/>
<rect x="248.0" y="189.0" width="9.3" height="15.3" fill="#e4e4e4"/>
<rect x="260.0" y="189.0" width="3.0" height="15.3" fill="#3a3a3a"/>
<rect x="311.0" y="189.0" width="9.3" height="15.3" fill="#e4e4e4"/>
<rect x="320.0" y="189.0" width="9.3" height="15.3" fill="#e4e4e4"/>
<rect x="332.0" y="195.0" width="6.3" height="3.0" fill="#3a3a3a"/>
<rect x="332.0" y="195.0" width="3.0" height="9.3" fill="#3a3a3a"/>
<rect x="338.0" y="189.0" width="9.3" height="15.3" fill="#e4e4e4"/>
<rect x="347.0" y="189.0" width="9.3" height="15.3" fill="#e4e4e4"/>
<rect x="356.0" y="189.0" width="9.3" height="15.3" fill="#e4e4e4"/>
<rect x="365.0" y="189.0" width="9.3" height="15.3" fill="#e4e4e4"/>
<rect x="377.0" y="195.0" width="6.3" height="3.0" fill="#3a3a3a"/>
<rect x="377.0" y="195.0" width="3.0" height="9.3" fill="#3a3a3a"/>
<rect x="383.0" y="189.0" width="9.3" height="15.3" fill="#e4e4e4"/>
<rect x="392.0" y="189.0" width="9.3" height="15.3" fill="#e4e4e4"/>
<rect x="404.0" y="189.0" width="3.0" height="15.3" fill="#3a3a3a"/>
<rect x="410.0" y="189.0" width="9.3" height="15.3" fill="#e4e4e4"/>
<rect x="419.0" y="189.0" width="9.3" height="15.3" fill="#e4e4e4"/>
<rect x="428.0" y="189.0" width="9.3" height="15.3" fill="#e4e4e4"/>
<rect x="437.0" y="189.0" width="9.3" height="15.3" fill="#e4e4e4"/>
<rect x="446.0" y="189.0" width="9.3" height="15.3" fill="#e4e4e4"/>
<rect x="455.0" y="195.0" width="6.0" height="3.0" fill="#3a3a3a"/>
<rect x="458.0" y="195.0" width="3.0" height="9.3" fill="#3a3a3a"/>
<rect x="482.0" y="189.0" width="9.3" height="15.3" fill="#e4e4e4"/>
<rect x="491.0" y="189.0" width="9.3" height="15.3" fill="#e4e4e4"/>
<rect x="503.0" y="189.0" width="3.0" height="15.3" fill="#3a3a3a"/>
<rect x="509.0" y="189.0" width="9.3" height="15.3" fill="#e4e4e4"/>
<rect x="518.0" y="189.0" width="9.3" height="15.3" fill="#e4e4e4"/>
<rect x="530.0" y="189.0" width="3.0" height="15.3" fill="#3a3a3a"/>
<rect x="554.0" y="189.0" width="9.3" height="15.3" fill="#e4e4e4"/>
<rect x="563.0" y="189.0" width="9.3" height="15.3" fill="#e4e4e4"/>
<rect x="575.0" y="189.0" width="3.0" height="15.3" fill="#3a3a3a"/>
<rect x="581.0" y="189.0" width="9.3" height="15.3" fill="#e4e4e4"/>
<rect x="590.0" y="189.0" width="9.3" height="15.3" fill="#e4e4e4"/>
<rect x="599.0" y="189.0" width="9.3" height="15.3" fill="#e4e4e4"/>
<rect x="608.0" y="189.0" width="9.3" height="15.3" fill="#e4e4e4"/>
<rect x="617.0" y="189.0" width="9.3" height="15.3" fill="#e4e4e4"/>
<rect x="626.0" y="189.0" width="9.3" height="15.3" fill="#e4e4e4"/>
<rect x="635.0" y="189.0" width="9.3" height="15.3" fill="#e4e4e4"/>
<rect x="647.0" y="189.0" width="3.0" height="15.3" fill="#3a3a3a"/>
<rect x="167.0" y="204.0" width="9.3" height="15.3" fill="#e4e4e4"/>
<rect x="176.0" y="204.0" width="9.3" height="15.3" fill="#e4e4e4"/>
<rect x="188.0" y="210.0" width="6.3" height="3.0" fill="#3a3a3a"/>
<rect x="188.0" y="210.0" width="3.0" height="9.3" fill="#3a3a3a"/>
<rect x="194.0" y="210.0" width="9.3" height="3.0" fill="#3a3a3a"/>
<rect x="203.0" y="210.0" width="9.3" height="3.0" fill="#3a3a3a"/>
<rect x="212.0" y="204.0" width="9.3" height="15.3" fill="#e4e4e4"/>
<rect x="221.0" y="204.0" width="9.3" height="15.3" fill="#e4e4e4"/>
<rect x="233.0" y="204.0" width="3.0" height="15.3" fill="#3a3a3a"/>
<rect x="239.0" y="204.0" width="9.3" height="15.3" fill="#e4e4e4"/>
<rect x="248.0" y="204.0" width="9.3" height="15.3" fill="#e4e4e4"/>
<rect x="260.0" y="204.0" width="3.0" height="15.3" fill="#3a3a3a"/>
<rect x="311.0" y="204.0" width="9.3" height="15.3" fill="#e4e4e4"/>
<rect x="320.0" y="204.0" width="9.3" height="15.3" fill="#e4e4e4"/>
<rect x="332.0" y="204.0" width="3.0" height="15.3" fill="#3a3a3a"/>
<rect x="341.0" y="210.0" width="6.3" height="3.0" fill="#3a3a3a"/>
<rect x="341.0" y="204.0" width="3.0" height="9.0" fill="#3a3a3a"/>
<rect x="347.0" y="204.0" width="9.3" height="15.3" fill="#e4e4e4"/>
<rect x="356.0" y="204.0" width="9.3" height="15.3" fill="#e4e4e4"/>
<rect x="368.0" y="210.0" width="6.3" height="3.0" fill="#3a3a3a"/>
<rect x="368.0" y="210.0" width="3.0" height="9.3" fill="#3a3a3a"/>
<rect x="374.0" y="210.0" width="6.0" height="3.0" fill="#3a3a3a"/>
<rect x="377.0" y="204.0" width="3.0" height="9.0" fill="#3a3a3a"/>
<rect x="383.0" y="204.0" width="9.3" height="15.3" fill="#e4e4e4"/>
<rect x="392.0" y="204.0" width="9.3" height="15.3" fill="#e4e4e4"/>
<rect x="404.0" y="204.0" width="3.0" height="15.3" fill="#3a3a3a"/>
<rect x="410.0" y="204.0" width="9.3" height="15.3" fill="#e4e4e4"/>
<rect x="419.0" y="204.0" width="9.3" height="15.3" fill="#e4e4e4"/>
<rect x="431.0" y="210.0" width="6.3" height="3.0" fill="#3a3a3a"/>
<rect x="431.0" y="210.0" width="3.0" height="9.3" fill="#3a3a3a"/>
<rect x="437.0" y="210.0" width="9.3" height="3.0" fill="#3a3a3a"/>
<rect x="446.0" y="210.0" width="9.3" height="3.0" fill="#3a3a3a"/>
<rect x="455.0" y="210.0" width="6.0" height="3.0" fill="#3a3a3a"/>
<rect x="458.0" y="204.0" width="3.0" height="9.0" fill="#3a3a3a"/>
<rect x="482.0" y="204.0" width="9.3" height="15.3" fill="#e4e4e4"/>
<rect x="491.0" y="204.0" width="9.3" height="15.3" fill="#e4e4e4"/>
<rect x="503.0" y="204.0" width="3.0" height="15.3" fill="#3a3a3a"/>
<rect x="509.0" y="204.0" width="9.3" height="15.3" fill="#e4e4e4"/>
<rect x="518.0" y="204.0" width="9.3" height="15.3" fill="#e4e4e4"/>
<rect x="530.0" y="204.0" width="3.0" height="15.3" fill="#3a3a3a"/>
<rect x="554.0" y="204.0" width="9.3" height="15.3" fill="#e4e4e4"/>
<rect x="563.0" y="204.0" width="9.3" height="15.3" fill="#e4e4e4"/>
<rect x="575.0" y="204.0" width="3.0" height="15.3" fill="#3a3a3a"/>
<rect x="581.0" y="204.0" width="9.3" height="15.3" fill="#e4e4e4"/>
<rect x="590.0" y="204.0" width="9.3" height="15.3" fill="#e4e4e4"/>
<rect x="602.0" y="210.0" width="6.3" height="3.0" fill="#3a3a3a"/>
<rect x="602.0" y="210.0" width="3.0" height="9.3" fill="#3a3a3a"/>
<rect x="608.0" y="210.0" width="9.3" height="3.0" fill="#3a3a3a"/>
<rect x="617.0" y="210.0" width="9.3" height="3.0" fill="#3a3a3a"/>
<rect x="626.0" y="204.0" width="9.3" height="15.3" fill="#e4e4e4"/>
<rect x="635.0" y="204.0" width="9.3" height="15.3" fill="#e4e4e4"/>
<rect x="647.0" y="204.0" width="3.0" height="15.3" fill="#3a3a3a"/>
<rect x="167.0" y="219.0" width="9.3" height="15.3" fill="#e4e4e4"/>
<rect x="176.0" y="219.0" width="9.3" height="15.3" fill="#e4e4e4"/>
<rect x="188.0" y="219.0" width="3.0" height="15.3" fill="#3a3a3a"/>
<rect x="212.0" y="219.0" width="9.3" height="15.3" fill="#e4e4e4"/>
<rect x="221.0" y="219.0" width="9.3" height="15.3" fill="#e4e4e4"/>
<rect x="233.0" y="219.0" width="3.0" height="15.3" fill="#3a3a3a"/>
<rect x="239.0" y="219.0" width="9.3" height="15.3" fill="#e4e4e4"/>
<rect x="248.0" y="219.0" width="9.3" height="15.3" fill="#e4e4e4"/>
<rect x="257.0" y="219.0" width="9.3" height="15.3" fill="#e4e4e4"/>
<rect x="266.0" y="219.0" width="9.3" height="15.3" fill="#e4e4e4"/>
<rect x="275.0" y="219.0" width="9.3" height="15.3" fill="#e4e4e4"/>
<rect x="284.0" y="219.0" width="9.3" height="15.3" fill="#e4e4e4"/>
<rect x="293.0" y="219.0" width="9.3" height="15.3" fill="#e4e4e4"/>
<rect x="302.0" y="225.0" width="6.0" height="3.0" fill="#3a3a3a"/>
<rect x="305.0" y="225.0" width="3.0" height="9.3" fill="#3a3a3a"/>
<rect x="311.0" y="219.0" width="9.3" height="15.3" fill="#e4e4e4"/>
<rect x="320.0" y="219.0" width="9.3" height="15.3" fill="#e4e4e4"/>
<rect x="332.0" y="219.0" width="3.0" height="15.3" fill="#3a3a3a"/>
<rect x="350.0" y="225.0" width="6.3" height="3.0" fill="#3a3a3a"/>
<rect x="350.0" y="219.0" width="3.0" height="9.0" fill="#3a3a3a"/>
<rect x="356.0" y="225.0" width="9.3" height="3.0" fill="#3a3a3a"/>
<rect x="365.0" y="225.0" width="6.0" height="3.0" fill="#3a3a3a"/>
<rect x="368.0" y="219.0" width="3.0" height="9.0" fill="#3a3a3a"/>
<rect x="383.0" y="219.0" width="9.3" height="15.3" fill="#e4e4e4"/>
<rect x="392.0" y="219.0" width="9.3" height="15.3" fill="#e4e4e4"/>
<rect x="404.0" y="219.0" width="3.0" height="15.3" fill="#3a3a3a"/>
<rect x="410.0" y="219.0" width="9.3" height="15.3" fill="#e4e4e4"/>
<rect x="419.0" y="219.0" width="9.3" height="15.3" fill="#e4e4e4"/>
<rect x="428.0" y="219.0" width="9.3" height="15.3" fill="#e4e4e4"/>
<rect x="437.0" y="219.0" width="9.3" height="15.3" fill="#e4e4e4"/>
<rect x="446.0" y="219.0" width="9.3" height="15.3" fill="#e4e4e4"/>
<rect x="455.0" y="219.0" width="9.3" height="15.3" fill="#e4e4e4"/>
<rect x="464.0" y="219.0" width="9.3" height="15.3" fill="#e4e4e4"/>
<rect x="473.0" y="225.0" width="6.0" height="3.0" fill="#3a3a3a"/>
<rect x="476.0" y="225.0" width="3.0" height="9.3" fill="#3a3a3a"/>
<rect x="482.0" y="219.0" width="9.3" height="15.3" fill="#e4e4e4"/>
<rect x="491.0" y="219.0" width="9.3" height="15.3" fill="#e4e4e4"/>
<rect x="503.0" y="219.0" width="3.0" height="15.3" fill="#3a3a3a"/>
<rect x="509.0" y="219.0" width="9.3" height="15.3" fill="#e4e4e4"/>
<rect x="518.0" y="219.0" width="9.3" height="15.3" fill="#e4e4e4"/>
<rect x="527.0" y="219.0" width="9.3" height="15.3" fill="#e4e4e4"/>
<rect x="536.0" y="219.0" width="9.3" height="15.3" fill="#e4e4e4"/>
<rect x="545.0" y="219.0" width="9.3" height="15.3" fill="#e4e4e4"/>
<rect x="554.0" y="219.0" width="9.3" height="15.3" fill="#e4e4e4"/>
<rect x="566.0" y="225.0" width="6.3" height="3.0" fill="#3a3a3a"/>
<rect x="566.0" y="225.0" width="3.0" height="9.3" fill="#3a3a3a"/>
<rect x="572.0" y="225.0" width="6.0" height="3.0" fill="#3a3a3a"/>
<rect x="575.0" y="219.0" width="3.0" height="9.0" fill="#3a3a3a"/>
<rect x="581.0" y="219.0" width="9.3" height="15.3" fill="#e4e4e4"/>
<rect x="590.0" y="219.0" width="9.3" height="15.3" fill="#e4e4e4"/>
<rect x="602.0" y="219.0" width="3.0" height="15.3" fill="#3a3a3a"/>
<rect x="626.0" y="219.0" width="9.3" height="15.3" fill="#e4e4e4"/>
<rect x="635.0" y="219.0" width="9.3" height="15.3" fill="#e4e4e4"/>
<rect x="647.0" y="219.0" width="3.0" height="15.3" fill="#3a3a3a"/>
<rect x="170.0" y="240.0" width="6.3" height="3.0" fill="#3a3a3a"/>
<rect x="170.0" y="234.0" width="3.0" height="9.0" fill="#3a3a3a"/>
<rect x="176.0" y="240.0" width="9.3" height="3.0" fill="#3a3a3a"/>
<rect x="185.0" y="240.0" width="6.0" height="3.0" fill="#3a3a3a"/>
<rect x="188.0" y="234.0" width="3.0" height="9.0" fill="#3a3a3a"/>
<rect x="215.0" y="240.0" width="6.3" height="3.0" fill="#3a3a3a"/>
<rect x="215.0" y="234.0" width="3.0" height="9.0" fill="#3a3a3a"/>
<rect x="221.0" y="240.0" width="9.3" height="3.0" fill="#3a3a3a"/>
<rect x="230.0" y="240.0" width="6.0" height="3.0" fill="#3a3a3a"/>
<rect x="233.0" y="234.0" width="3.0" height="9.0" fill="#3a3a3a"/>
<rect x="242.0" y="240.0" width="6.3" height="3.0" fill="#3a3a3a"/>
<rect x="242.0" y="234.0" width="3.0" height="9.0" fill="#3a3a3a"/>
<rect x="248.0" y="240.0" width="9.3" height="3.0" fill="#3a3a3a"/>
<rect x="257.0" y="240.0" width="9.3" height="3.0" fill="#3a3a3a"/>
<rect x="266.0" y="240.0" width="9.3" height="3.0" fill="#3a3a3a"/>
<rect x="275.0" y="240.0" width="9.3" height="3.0" fill="#3a3a3a"/>
<rect x="284.0" y="240.0" width="9.3" height="3.0" fill="#3a3a3a"/>
<rect x="293.0" y="240.0" width="9.3" height="3.0" fill="#3a3a3a"/>
<rect x="302.0" y="240.0" width="6.0" height="3.0" fill="#3a3a3a"/>
<rect x="305.0" y="234.0" width="3.0" height="9.0" fill="#3a3a3a"/>
<rect x="314.0" y="240.0" width="6.3" height="3.0" fill="#3a3a3a"/>
<rect x="314.0" y="234.0" width="3.0" height="9.0" fill="#3a3a3a"/>
<rect x="320.0" y="240.0" width="9.3" height="3.0" fill="#3a3a3a"/>
<rect x="329.0" y="240.0" width="6.0" height="3.0" fill="#3a3a3a"/>
<rect x="332.0" y="234.0" width="3.0" height="9.0" fill="#3a3a3a"/>
<rect x="386.0" y="240.0" width="6.3" height="3.0" fill="#3a3a3a"/>
<rect x="386.0" y="234.0" width="3.0" height="9.0" fill="#3a3a3a"/>
<rect x="392.0" y="240.0" width="9.3" height="3.0" fill="#3a3a3a"/>
<rect x="401.0" y="240.0" width="6.0" height="3.0" fill="#3a3a3a"/>
<rect x="404.0" y="234.0" width="3.0" height="9.0" fill="#3a3a3a"/>
<rect x="413.0" y="240.0" width="6.3" height="3.0" fill="#3a3a3a"/>
<rect x="413.0" y="234.0" width="3.0" height="9.0" fill="#3a3a3a"/>
<rect x="419.0" y="240.0" width="9.3" height="3.0" fill="#3a3a3a"/>
<rect x="428.0" y="240.0" width="9.3" height="3.0" fill="#3a3a3a"/>
<rect x="437.0" y="240.0" width="9.3" height="3.0" fill="#3a3a3a"/>
<rect x="446.0" y="240.0" width="9.3" height="3.0" fill="#3a3a3a"/>
<rect x="455.0" y="240.0" width="9.3" height="3.0" fill="#3a3a3a"/>
<rect x="464.0" y="240.0" width="9.3" height="3.0" fill="#3a3a3a"/>
<rect x="473.0" y="240.0" width="6.0" height="3.0" fill="#3a3a3a"/>
<rect x="476.0" y="234.0" width="3.0" height="9.0" fill="#3a3a3a"/>
<rect x="485.0" y="240.0" width="6.3" height="3.0" fill="#3a3a3a"/>
<rect x="485.0" y="234.0" width="3.0" height="9.0" fill="#3a3a3a"/>
<rect x="491.0" y="240.0" width="9.3" height="3.0" fill="#3a3a3a"/>
<rect x="500.0" y="240.0" width="6.0" height="3.0" fill="#3a3a3a"/>
<rect x="503.0" y="234.0" width="3.0" height="9.0" fill="#3a3a3a"/>
<rect x="512.0" y="240.0" width="6.3" height="3.0" fill="#3a3a3a"/>
<rect x="512.0" y="234.0" width="3.0" height="9.0" fill="#3a3a3a"/>
<rect x="518.0" y="240.0" width="9.3" height="3.0" fill="#3a3a3a"/>
<rect x="527.0" y="240.0" width="9.3" height="3.0" fill="#3a3a3a"/>
<rect x="536.0" y="240.0" width="9.3" height="3.0" fill="#3a3a3a"/>
<rect x="545.0" y="240.0" width="9.3" height="3.0" fill="#3a3a3a"/>
<rect x="554.0" y="240.0" width="9.3" height="3.0" fill="#3a3a3a"/>
<rect x="563.0" y="240.0" width="6.0" height="3.0" fill="#3a3a3a"/>
<rect x="566.0" y="234.0" width="3.0" height="9.0" fill="#3a3a3a"/>
<rect x="584.0" y="240.0" width="6.3" height="3.0" fill="#3a3a3a"/>
<rect x="584.0" y="234.0" width="3.0" height="9.0" fill="#3a3a3a"/>
<rect x="590.0" y="240.0" width="9.3" height="3.0" fill="#3a3a3a"/>
<rect x="599.0" y="240.0" width="6.0" height="3.0" fill="#3a3a3a"/>
<rect x="602.0" y="234.0" width="3.0" height="9.0" fill="#3a3a3a"/>
<rect x="629.0" y="240.0" width="6.3" height="3.0" fill="#3a3a3a"/>
<rect x="629.0" y="234.0" width="3.0" height="9.0" fill="#3a3a3a"/>
<rect x="635.0" y="240.0" width="9.3" height="3.0" fill="#3a3a3a"/>
<rect x="644.0" y="240.0" width="6.0" height="3.0" fill="#3a3a3a"/>
<rect x="647.0" y="234.0" width="3.0" height="9.0" fill="#3a3a3a"/>
<text x="410" y="295.0" class="tag" text-anchor="middle">AI ENGINEER   ·   MODELS THAT LEAVE THE NOTEBOOK<tspan class="cur">▌</tspan></text>
</svg>
